<svg xmlns="http://www.w3.org/2000/svg" viewBox="0 0 512 512">
  <defs>
    <linearGradient id="gold" x1="0%" y1="0%" x2="100%" y2="100%">
      <stop offset="0%" stop-color="#FFD700"/>
      <stop offset="40%" stop-color="#FFB700"/>
      <stop offset="70%" stop-color="#E6A300"/>
      <stop offset="100%" stop-color="#C98A00"/>
    </linearGradient>
  </defs>

  <path fill="url(#gold)"
    d="M256 90c-12 0-22 10-22 22s10 22 22 22 22-10 22-22-10-22-22-22zm154 44c-12 0-22 10-22 22s10 22 22 22
    22-10 22-22-10-22-22-22zm-308 0c-12 0-22 10-22 22s10 22 22 22 22-10 22-22-10-22-22-22zm319 70l-77 54
    c-6 4-14 4-20-1l-59-47-59 47c-6 5-14 5-20 1l-77-54-23 124h358l-23-124zm-303 156h300v32H118v-32z"/>
</svg>